<svg width="17" height="17" fill="none" xmlns="http://www.w3.org/2000/svg"><path d="M10.724 0c1.861 0 2.75.171 3.671.665a4.673 4.673 0 011.94 1.94c.493.922.665 1.81.665 3.671v4.448c0 1.861-.172 2.75-.665 3.671a4.673 4.673 0 01-1.94 1.94c-.922.493-1.81.665-3.671.665H6.276c-1.861 0-2.75-.172-3.672-.665a4.673 4.673 0 01-1.94-1.94C.172 13.473 0 12.585 0 10.725V6.276c0-1.861.171-2.75.665-3.672a4.673 4.673 0 011.94-1.94C3.526.172 4.414 0 6.275 0h4.448zm0 1.545H6.276c-1.628 0-2.275.125-2.943.483a3.128 3.128 0 00-1.305 1.305c-.358.668-.483 1.315-.483 2.943v4.448c0 1.628.125 2.275.483 2.943a3.13 3.13 0 001.305 1.306c.668.357 1.315.481 2.943.481h4.448c1.628 0 2.275-.124 2.943-.482a3.128 3.128 0 001.306-1.305c.357-.668.481-1.315.481-2.943V6.276c0-1.628-.124-2.275-.482-2.943a3.128 3.128 0 00-1.305-1.305c-.668-.358-1.315-.483-2.943-.483zM8.5 4.636c.394 0 .719.295.767.676l.006.097-.001 2.318h2.319c.394 0 .719.295.767.676l.006.097a.773.773 0 01-.676.767l-.097.006H9.27l.002 2.318a.773.773 0 01-.676.767l-.097.006a.773.773 0 01-.767-.676l-.006-.097V9.273H5.408a.773.773 0 01-.767-.676L4.636 8.5c0-.394.295-.719.676-.767l.097-.006h2.317l.001-2.318c0-.394.295-.719.676-.767l.097-.006z" fill="#3F8AE0"/></svg>